<?xml version="1.0" encoding="utf-8"?>
<!-- Generator: Adobe Illustrator 21.1.0, SVG Export Plug-In . SVG Version: 6.00 Build 0)  -->
<svg version="1.1" id="Capa_1" xmlns="http://www.w3.org/2000/svg" xmlns:xlink="http://www.w3.org/1999/xlink" x="0px" y="0px"
	 viewBox="0 0 500 500" style="enable-background:new 0 0 500 500;" xml:space="preserve">
<style type="text/css">
	.st0{fill:#E6E7E8;}
</style>
<g>
	<g>
		<path class="st0" d="M432.6,288.4c0-0.3,0-0.7,0-1c-0.2-0.5-0.4-0.9-0.7-1.3l-0.7-1L287.9,148.2c-1.2-1.1-2.7-1.9-4.3-2.2
			c-12.3-1.7-24.6-2.6-37-2.7c-4.7-3.7-10.2-6.2-16.1-7.4c-1.4-14.8,0.2-48.3,27.9-63.1c3.9-2.2,5.3-7.2,3.1-11.1s-7.2-5.3-11.1-3.1
			c-35.8,19.4-38.2,59.8-37.4,77.2c-7.2,1.6-13.8,5.2-19,10.4C135.1,155,91.6,181.3,68,222.3v0.4v0.5c-0.4,0.9-0.6,2-0.6,3V370
			c-0.1,3.9,2.7,7.3,6.6,8.1l349.2,64.4h1.4c4.4,0,8.1-3.6,8.1-8.1V290.1c0,0,0,0,0-0.6C432.7,289.2,432.6,288.8,432.6,288.4z
			 M222.3,150.6c12.8,0,23.2,10.3,23.3,23.1c0,12.8-10.3,23.2-23.1,23.3c-12.8,0-23.2-10.3-23.3-23.1c0,0,0-0.1,0-0.1
			C199.2,161,209.5,150.6,222.3,150.6z M184.3,164.1L184.3,164.1c-0.8,3.1-1.3,6.3-1.3,9.6c-0.6,21.7,16.4,39.8,38.1,40.4
			s39.8-16.4,40.4-38.1c0.2-5.8-0.9-11.6-3.3-16.9c9.1,0.5,16.1,1.3,19.3,1.7l122.2,116.8L89.2,220.3
			C109.1,191.7,141.2,172.9,184.3,164.1z M83.7,363.3v-38.7l333.1,60l0.1,40.2L83.7,363.3z M83.7,308.3v-24.2l333.1,60l0.1,24.3
			L83.7,308.3z M83.7,267.9v-32.2l247.1,45.7l85.9,16.1l0.2,30.7L83.7,267.9z"/>
	</g>
</g>
</svg>
