<?xml version="1.0" encoding="utf-8"?>
<!-- Generator: Adobe Illustrator 21.1.0, SVG Export Plug-In . SVG Version: 6.00 Build 0)  -->
<svg version="1.1" id="Layer_1" xmlns="http://www.w3.org/2000/svg" xmlns:xlink="http://www.w3.org/1999/xlink" x="0px" y="0px"
	 viewBox="0 0 500 500" style="enable-background:new 0 0 500 500;" xml:space="preserve">
<style type="text/css">
	.st0{fill:#E6E7E8;}
</style>
<g>
	<g>
		<g>
			<path class="st0" d="M124,116.4c2.1,1.1,3.6,3.1,4,5.5l0.1,1.2l-2.2,5.3l-4.9,4.9c-4.7,4.7-4.7,12.3,0,17c4.7,4.7,12.3,4.7,17,0
				l4.9-4.9c6-6,9.2-14,9.2-22.3l-0.4-5c-1.6-10-8-18.7-17-23.2c-2.1-1-3.5-3-3.9-5.3l-0.1-1.2l2.1-5.1l5.2-5.2
				c4.7-4.7,4.7-12.3,0-17c-4.7-4.7-12.3-4.7-17,0l-5.2,5.2c-5.9,5.9-9.2,13.9-9.2,22.2l0.4,5C108.7,103.3,115,111.9,124,116.4z"/>
			<path class="st0" d="M196.3,116.4c2.2,1.1,3.6,3.1,4,5.5l0.1,1.2l-2.2,5.3l-4.9,4.9c-4.7,4.7-4.7,12.3,0,17s12.3,4.7,17,0
				l4.9-4.9c6-5.9,9.2-14,9.2-22.3l-0.4-5c-1.6-10-8-18.7-17-23.2c-2.1-1-3.5-3-3.9-5.3l-0.1-1.2l2.1-5.1l5.2-5.2
				c4.7-4.7,4.7-12.3,0-17c-4.7-4.7-12.3-4.7-17,0l-5.2,5.2c-5.9,5.9-9.2,13.9-9.2,22.2l0.4,5C181,103.3,187.3,111.9,196.3,116.4z"
				/>
			<path class="st0" d="M268.6,116.4c2.2,1.1,3.7,3.1,4,5.5l0.1,1.2l-2.2,5.3l-4.9,4.9c-4.7,4.7-4.7,12.3,0,17
				c4.7,4.7,12.3,4.7,17,0l4.9-4.9c5.9-5.9,9.2-14,9.2-22.3l-0.4-5c-1.6-10-8-18.7-17-23.2c-2.1-1-3.5-3-3.9-5.3l-0.1-1.2l2.1-5.1
				l5.2-5.2c4.7-4.7,4.7-12.3,0-17c-4.7-4.7-12.3-4.7-17,0l-5.2,5.2c-5.9,5.9-9.2,13.9-9.2,22.2l0.4,5
				C253.3,103.3,259.6,111.9,268.6,116.4z"/>
			<path class="st0" d="M358.4,201.6h-12V190c0-3.2-1.3-6.5-3.5-8.7s-5.3-3.7-8.5-3.7H69.4c-3.2,0-6.3,1.5-8.5,3.7s-3.5,5.5-3.5,8.7
				v192.7c0,33.3,27,59.8,60.2,59.8h168.6c33.3,0,60.2-26.6,60.2-59.8v-12.4h12c46.6,0,84.3-37.7,84.3-84.3
				C442.7,239.4,404.9,201.6,358.4,201.6z M322.3,382.7c0,19.9-16.2,35.7-36.1,35.7H117.5c-20,0-36.1-15.8-36.1-35.7v-181h240.9
				V382.7z M358.4,346.2h-12V225.7h12c33.3,0,60.2,27,60.2,60.2C418.5,319.2,391.6,346.2,358.4,346.2z"/>
		</g>
	</g>
</g>
</svg>
