<?xml version="1.0" encoding="utf-8"?>
<!-- Generator: Adobe Illustrator 21.1.0, SVG Export Plug-In . SVG Version: 6.00 Build 0)  -->
<svg version="1.1" id="Layer_1" xmlns="http://www.w3.org/2000/svg" xmlns:xlink="http://www.w3.org/1999/xlink" x="0px" y="0px"
	 viewBox="0 0 500 500" style="enable-background:new 0 0 500 500;" xml:space="preserve">
<style type="text/css">
	.st0{fill:#E6E7E8;}
</style>
<g>
	<g>
		<g>
			<path class="st0" d="M439.1,214.4c-1-5.2-5.2-9.1-10.4-9.7c-5.2-0.6-10.2,2.2-12.4,7c-3.8,8.4-12.2,14.3-21.9,14.3
				c-10.8,0-19.9-7.2-22.9-17.2c-1.8-6.1-8.1-9.7-14.3-8.3c-3.8,0.9-7.4,1.4-11,1.4c-26.5,0-48.1-21.6-48.1-48.1
				c0-3.6,0.5-7.2,1.4-11c1.5-6.2-2.2-12.5-8.3-14.3c-10-3-17.2-12.1-17.2-22.9c0-9.7,5.8-18.1,14.3-21.9c4.8-2.2,7.6-7.2,7-12.4
				c-0.6-5.2-4.5-9.4-9.7-10.4c-11.5-2.2-23.4-3.4-35.6-3.4C143.8,57.5,57.5,143.8,57.5,250c0,106.2,86.3,192.5,192.5,192.5
				c106.2,0,192.5-86.3,192.5-192.5C442.5,237.8,441.2,225.9,439.1,214.4z M369,369c-30.5,30.5-72.6,49.4-119,49.4
				s-88.5-18.9-119-49.4c-30.5-30.5-49.4-72.6-49.4-119s18.9-88.5,49.4-119c30.5-30.5,72.6-49.4,119-49.4c2.2,0,4.3,0.2,6.4,0.3
				c-4,7-6.4,15.1-6.4,23.7c0,18,10,33.4,24.5,41.6c-0.2,2.1-0.4,4.3-0.4,6.5c0,39.8,32.4,72.2,72.2,72.2c2.3,0,4.4-0.2,6.5-0.4
				C361,240,376.4,250,394.4,250c8.7,0,16.7-2.4,23.7-6.4c0.1,2.1,0.3,4.3,0.3,6.4C418.4,296.5,399.6,338.5,369,369z"/>
			<circle class="st0" cx="201.9" cy="153.8" r="24.1"/>
			<circle class="st0" cx="153.8" cy="250" r="24.1"/>
			<circle class="st0" cx="274.1" cy="346.3" r="24.1"/>
			<circle class="st0" cx="262" cy="262" r="12"/>
			<circle class="st0" cx="358.3" cy="310.2" r="12"/>
			<circle class="st0" cx="189.8" cy="334.2" r="12"/>
		</g>
	</g>
</g>
</svg>
