<?xml version="1.0" encoding="utf-8"?>
<!-- Generator: Adobe Illustrator 21.1.0, SVG Export Plug-In . SVG Version: 6.00 Build 0)  -->
<svg version="1.1" id="Capa_1" xmlns="http://www.w3.org/2000/svg" xmlns:xlink="http://www.w3.org/1999/xlink" x="0px" y="0px"
	 viewBox="0 0 500 500" style="enable-background:new 0 0 500 500;" xml:space="preserve">
<style type="text/css">
	.st0{fill:#E6E7E8;}
</style>
<g>
	<g>
		<circle class="st0" cx="133.4" cy="193.7" r="11.3"/>
	</g>
</g>
<g>
	<g>
		<circle class="st0" cx="248.2" cy="193.7" r="11.3"/>
	</g>
</g>
<g>
	<g>
		<circle class="st0" cx="362.8" cy="193.7" r="11.3"/>
	</g>
</g>
<g>
	<g>
		<circle class="st0" cx="304.9" cy="125.5" r="11.3"/>
	</g>
</g>
<g>
	<g>
		<circle class="st0" cx="194.8" cy="122.4" r="11.3"/>
	</g>
</g>
<g>
	<g>
		<path class="st0" d="M435.8,223.8c-2-0.6-4-0.4-5.9,0.4l-0.4,0.1c-8.4-100.2-96.4-174.6-196.6-166.2
			c-88.2,7.4-158.3,77.2-166.1,165.4c-2-0.1-4,0.5-5.5,1.8c-2.6,2.1-3.7,5.6-2.8,8.9l60.7,202.4c1.1,3.7,4.6,6.1,8.4,5.9h244.7
			c3.8,0.2,7.3-2.3,8.4-5.9l60.7-202.4C442.8,229.7,440.2,225.1,435.8,223.8z M248.2,74c88.8,0.1,161.7,70.4,165,159.1l-37.1,20.4
			l-58.6-37.8c-2.8-1.8-6.3-1.8-9,0l-58.6,37.5l-58.6-37.5c-2.8-1.8-6.3-1.8-9,0l-58.6,37.8l-40.4-22.1
			C87.3,143.3,160,74.1,248.2,74z M366.1,425.8h-49.7l21.9-66.2c1.5-4.4-0.9-9.1-5.3-10.6c-4.4-1.5-9.1,0.9-10.6,5.3l-23.6,71.4
			h-40.5V357c0-4.6-3.8-8.4-8.4-8.4c-4.6,0-8.4,3.8-8.4,8.4v68.9h-40.5l-23.6-71.4c-1.5-4.4-6.2-6.8-10.6-5.3
			c-4.4,1.5-6.8,6.2-5.3,10.6l21.9,66.2h-49.7l-53-176.7l39.4,21.6c2.6,1.5,5.8,1.5,8.4,0l58.6-37.5l58.6,37.5c2.8,1.8,6.3,1.8,9,0
			l58.6-37.5l58.6,37.5c2.6,1.5,5.8,1.5,8.4,0l39.4-21.6L366.1,425.8z"/>
	</g>
</g>
</svg>
