<?xml version="1.0" encoding="utf-8"?>
<!-- Generator: Adobe Illustrator 21.1.0, SVG Export Plug-In . SVG Version: 6.00 Build 0)  -->
<svg version="1.1" id="Layer_1" xmlns="http://www.w3.org/2000/svg" xmlns:xlink="http://www.w3.org/1999/xlink" x="0px" y="0px"
	 viewBox="0 0 500 500" style="enable-background:new 0 0 500 500;" xml:space="preserve">
<style type="text/css">
	.st0{fill:#E6E7E8;}
</style>
<g>
	<g>
		<g>
			<path class="st0" d="M250,57.5C143.7,57.5,57.5,143.7,57.5,250c0,9.5,0.8,18.7,2.3,27.9c0,0,0,0.1,0,0.1s0,0.1,0,0.2h0
				c13.5,92.8,93.5,164.3,190.2,164.3c71.6,0,134.3-39.3,167.3-97.5l0.1-0.5c16.1-28,25-60.3,25-94.5
				C442.5,143.7,356.3,57.5,250,57.5z M130.9,130.9c30.5-30.5,72.6-49.4,119.1-49.4s88.6,18.8,119.1,49.4
				c25.3,25.3,42.4,58.7,47.6,95.8c-2.3-0.5-6.2-0.8-8.7-0.8c-19.9,0-37.7,16.2-37.7,36.1v48.1c0,6.5-5.5,12-12,12
				c-6.5,0-12-5.5-12-12V262c0-18.3-12.1-33.2-29.6-35.6c-9.8-28.3-35.8-48.6-67.4-48.6c-31.8,0-58.4,20.6-68,49.2
				c-16,3.8-27.5,18-27.5,35.1v24.1c0,6.5-5.5,12-12,12c-6.5,0-12-5.5-12-12V262c0-19.9-16.2-36-36.1-36.1c-3.6,0-7.1,0.6-10.3,1.6
				C88.3,190,105.4,156.4,130.9,130.9z M202.9,260l0-0.2c-0.6-3.3-1-6.7-1-9.8c0-26.6,21.6-48.1,48.1-48.1
				c26.6,0,48.1,21.6,48.1,48.1c0,6.5-1.2,12.3-3.4,17.8l0,0.1c-5.9,14.8-19,26-34.9,29.2c-3.2,0.6-6.6,1-9.7,1
				c-10.7,0-21.1-3.7-28.8-9.6l0,0C211.9,281.6,205.5,271.7,202.9,260z M396.1,332.8l0.1,0.4c-29,50.9-83.7,85.2-146.3,85.2
				c-84.6,0-154.7-62.7-166.3-143.9l0-0.3c-0.9-5.3-1.4-10.7-1.7-16l0.8-1.2c1.7-3.9,6-7.1,10.9-7c6.5,0,12,5.5,12,12v24.1
				c0,19.9,16.2,36,36.1,36.1c19.9,0,36.1-16.2,36.1-36.1v-16.4c0,15.4,14.9,28.7,27.4,38.1c11.9,9,26.6,14.4,42.8,14.4
				c5,0,2-0.6,14.1-1.4v-1.5c24.1-4.7,41.4-19.9,50.7-42.4l1.9,0c0,0,1.2,0,1.2,0c3-7.3,3.5-15.2,3.9-23.2c2.1,2.2,2.5,5.1,2.5,8.3
				v48.1c0,19.9,16.2,36,36.1,36.1c19.9,0,36.1-16.2,36.1-36.1V262c0-6.5,7.1-12,13.6-12c3.5,0,7.4,1.6,9.6,3.9
				C416.9,282.6,409.6,309.4,396.1,332.8z"/>
			<path class="st0" d="M150.2,198.3l24.1-24.1c4.7-4.7,4.7-12.3,0-17c-4.7-4.7-12.3-4.7-17,0l-24.1,24.1c-4.7,4.7-4.7,12.3,0,17
				C137.9,203.1,145.5,203.1,150.2,198.3z"/>
			<path class="st0" d="M253.5,150.2c4.7,4.7,12.3,4.7,17,0c4.7-4.7,4.7-12.3,0-17l-24.1-24.1c-4.7-4.7-12.3-4.7-17,0
				c-4.7,4.7-4.7,12.3,0,17L253.5,150.2z"/>
			<path class="st0" d="M334.2,177.8h24.1c6.6,0,12-5.4,12-12s-5.4-12-12-12h-24.1c-6.6,0-12,5.4-12,12S327.6,177.8,334.2,177.8z"/>
		</g>
	</g>
</g>
</svg>
