<?xml version="1.0" encoding="utf-8"?>
<!-- Generator: Adobe Illustrator 21.1.0, SVG Export Plug-In . SVG Version: 6.00 Build 0)  -->
<svg version="1.1" id="Layer_1" xmlns="http://www.w3.org/2000/svg" xmlns:xlink="http://www.w3.org/1999/xlink" x="0px" y="0px"
	 viewBox="0 0 500 500" style="enable-background:new 0 0 500 500;" xml:space="preserve">
<style type="text/css">
	.st0{fill:#E6E7E8;}
</style>
<g>
	<g>
		<path class="st0" d="M403,61c-4.7-4.7-12.3-4.7-17,0l-73.8,73.8c-3.1-1.2-6.2-2.1-9.5-2.9c-12.9-29.7-42.3-50.4-76.8-50.4
			c-34.5,0-63.9,20.7-76.8,50.4c-31.8,7.5-55.6,35.9-55.7,70.1c0,3.1,0.3,6,0.6,8.9c-0.3,1-0.6,2-0.6,3.1
			c0,69.1,48.2,125.8,120.4,131.9v72.5h-60.2c-6.6,0-12,5.4-12,12s5.4,12,12,12h144.5c6.6,0,12-5.4,12-12s-5.4-12-12-12H238v-72.5
			c60.2-6.1,120.4-62.8,120.4-131.9c0-1.1-0.3-2.1-0.6-3.1c0.4-2.9,0.6-5.8,0.6-8.9c0-21.8-9.8-41.1-25-54.4L403,78.1
			C407.7,73.4,407.7,65.7,403,61z M225.9,105.7c20.3,0,38,9.9,48.8,25.1c-20.3,3.3-37.9,14.9-48.8,31.4
			c-10.9-16.5-28.5-28.1-48.8-31.4C187.9,115.6,205.6,105.7,225.9,105.7z M159.2,154.1c2.5-0.2,4.7-0.5,6.5-0.5
			c26.6,0,48.1,24,48.2,48.1h-96.3C117.5,177.5,135.8,157.2,159.2,154.1z M302.5,290.5c-19.7,19.6-46.7,31.9-76.6,31.9
			s-57-12.3-76.6-31.9c-17-17-28.3-40.6-31-64.7h106.5h2.4h106.5C330.8,249.8,319.5,273.5,302.5,290.5z M334.3,201.6H238
			c0-24.1,21.6-47.9,48.2-48c1.8,0,4,0.1,6.5,0.3C316,157.1,334.3,177.5,334.3,201.6z"/>
	</g>
</g>
</svg>
